<?xml version="1.0" standalone="no"?>
<!DOCTYPE svg PUBLIC "-//W3C//DTD SVG 20010904//EN"
 "http://www.w3.org/TR/2001/REC-SVG-20010904/DTD/svg10.dtd">
<svg version="1.0" xmlns="http://www.w3.org/2000/svg"
 width="1280.000000pt" height="1113.000000pt" viewBox="0 0 1280.000000 1113.000000"
 preserveAspectRatio="xMidYMid meet">
<g transform="translate(0.000000,1113.000000) scale(0.100000,-0.100000)"
fill="#000000" stroke="none">
<path d="M5330 11125 c0 -4 28 -39 63 -79 319 -360 551 -796 653 -1226 77
-323 49 -512 -176 -1210 -143 -444 -199 -645 -240 -856 -36 -188 -31 -178 -52
-99 -53 201 -94 517 -128 985 -50 669 -98 864 -282 1123 -202 285 -452 530
-763 747 -144 101 -360 228 -370 218 -2 -2 51 -44 118 -95 364 -271 681 -641
867 -1013 133 -265 151 -494 93 -1210 -10 -125 -17 -323 -17 -507 -1 -166 -2
-300 -3 -299 -10 10 -134 364 -186 531 -36 116 -93 300 -128 410 -147 473
-253 694 -421 871 -284 300 -711 589 -1133 767 -136 57 -332 127 -338 120 -3
-2 65 -40 151 -83 370 -185 698 -429 967 -720 338 -364 396 -513 525 -1345 41
-268 102 -603 136 -745 l6 -25 -21 25 c-57 68 -239 349 -417 645 -408 681
-515 812 -820 996 -304 185 -681 337 -1049 424 -179 43 -449 87 -434 71 3 -3
48 -17 101 -30 386 -101 787 -280 1107 -495 237 -160 375 -288 476 -441 118
-179 163 -273 381 -788 140 -331 242 -546 333 -707 l62 -110 -106 105 c-134
132 -292 307 -519 575 -455 536 -662 726 -919 844 -461 212 -958 325 -1533
347 -210 8 -256 -6 -82 -25 448 -48 896 -181 1308 -387 398 -199 560 -356 896
-869 64 -99 187 -286 273 -415 86 -129 160 -242 165 -250 19 -29 -106 60 -517
368 -665 498 -827 581 -1282 657 -391 64 -763 71 -1165 19 -151 -19 -280 -45
-280 -55 0 -5 15 -5 33 -1 56 12 644 8 757 -6 412 -51 795 -149 1020 -262 218
-110 349 -219 949 -797 279 -268 465 -426 711 -604 60 -44 230 -149 302 -186
37 -20 67 -37 65 -39 -5 -6 -285 76 -402 117 -264 93 -599 243 -1011 453 -450
230 -667 328 -889 399 -159 51 -257 67 -465 77 -435 20 -903 -40 -1335 -172
-113 -34 -308 -108 -302 -114 2 -2 69 11 148 30 291 70 498 95 834 103 400 9
741 -27 973 -103 101 -33 327 -143 477 -232 124 -74 784 -505 780 -510 -3 -3
-106 25 -438 118 -502 140 -703 180 -947 187 -137 5 -190 2 -310 -16 -513 -77
-1015 -259 -1418 -515 -57 -36 -48 -44 15 -13 26 14 89 41 138 62 422 174 877
274 1330 292 350 13 571 -43 1270 -324 588 -237 824 -320 1132 -397 148 -37
349 -76 395 -76 15 0 28 -4 28 -9 0 -4 -42 -11 -92 -14 -450 -31 -768 -14
-1512 83 -734 95 -980 108 -1236 64 -103 -18 -310 -79 -472 -139 -386 -145
-766 -368 -1071 -629 -42 -37 -77 -70 -77 -75 0 -4 53 27 118 69 394 260 879
453 1372 546 259 49 496 42 844 -26 143 -28 798 -182 793 -186 -1 -1 -126 -10
-277 -18 -620 -37 -879 -86 -1130 -211 -312 -157 -571 -340 -819 -580 -151
-147 -351 -380 -351 -411 0 -5 51 41 113 101 337 329 788 605 1240 760 198 67
297 79 687 79 207 0 453 -7 615 -17 570 -35 985 -32 1310 9 117 15 380 65 420
80 80 29 -171 -117 -324 -189 -343 -161 -700 -271 -1401 -432 -532 -122 -749
-182 -948 -264 -149 -60 -231 -105 -341 -189 -383 -291 -700 -669 -904 -1080
-44 -89 -78 -164 -75 -167 2 -3 41 50 86 118 260 390 615 727 1034 978 274
165 509 226 1193 309 176 21 321 37 322 36 1 -1 -97 -46 -219 -101 -407 -184
-590 -295 -748 -454 -302 -303 -552 -762 -654 -1201 -34 -146 -39 -180 -26
-180 5 0 10 7 10 16 0 29 101 273 162 393 68 132 213 356 313 481 111 139 358
377 462 447 209 140 372 202 1237 473 276 86 517 171 681 240 135 57 356 163
416 200 27 16 49 26 49 21 0 -18 -277 -295 -393 -392 -234 -197 -363 -287
-1114 -777 -334 -217 -564 -405 -670 -547 -199 -266 -374 -716 -438 -1125 -18
-117 -31 -488 -16 -455 5 11 10 32 10 47 2 51 51 276 86 394 96 317 223 576
419 853 209 295 378 417 1033 741 200 99 366 180 370 180 4 0 -81 -89 -188
-197 -378 -383 -462 -520 -548 -893 -40 -172 -55 -315 -54 -540 0 -230 13
-356 58 -552 24 -108 52 -181 41 -108 -3 19 -9 116 -12 215 -13 348 40 669
163 990 52 134 127 282 177 349 114 150 319 335 661 595 579 441 791 622 1017
870 l76 84 -25 -89 c-51 -182 -123 -355 -244 -585 -98 -186 -166 -295 -439
-709 -502 -761 -551 -886 -537 -1375 11 -352 85 -685 222 -1000 47 -107 105
-218 111 -213 2 2 -10 43 -26 91 -105 307 -155 691 -132 1010 24 323 65 497
158 679 89 171 218 338 598 772 125 142 243 281 264 307 20 26 40 48 43 49 4
0 -22 -74 -57 -165 -122 -317 -191 -546 -215 -705 -59 -407 185 -1073 563
-1534 86 -106 115 -124 56 -34 -63 94 -181 327 -232 458 -113 291 -170 573
-170 855 -1 137 3 173 23 250 49 189 138 380 382 825 159 290 303 577 349 695
13 33 27 64 32 69 11 13 10 -289 -2 -444 -15 -191 -36 -341 -105 -755 -78
-462 -95 -608 -95 -791 0 -170 17 -268 71 -415 142 -386 402 -776 725 -1089
119 -115 204 -188 204 -175 0 4 -28 39 -63 79 -317 358 -552 797 -652 1221
-78 327 -50 517 175 1215 107 333 145 459 190 633 38 149 50 182 50 135 0 -44
50 -670 60 -758 28 -229 77 -426 140 -555 130 -267 486 -651 833 -897 165
-117 407 -261 407 -241 0 5 -24 24 -52 43 -268 181 -601 525 -786 810 -74 115
-177 310 -207 392 -13 37 -32 106 -42 155 -26 128 -23 519 5 893 12 157 23
381 25 497 1 117 3 213 4 213 5 0 82 -159 126 -260 73 -171 140 -358 227 -640
232 -752 308 -942 454 -1136 25 -33 95 -108 155 -167 346 -334 794 -605 1282
-777 59 -21 110 -36 112 -33 3 2 -65 40 -151 83 -342 171 -635 384 -898 652
-402 408 -459 545 -594 1413 -81 526 -152 845 -240 1085 -16 47 -24 78 -16 70
35 -37 231 -344 410 -643 400 -668 506 -795 826 -987 360 -217 828 -388 1257
-459 191 -32 203 -33 203 -23 0 5 -17 12 -39 16 -66 10 -277 75 -420 128 -373
139 -713 333 -996 568 -190 159 -325 377 -525 850 -45 107 -106 250 -135 318
-29 67 -51 122 -50 122 14 0 256 -269 489 -545 455 -536 662 -726 919 -844
379 -175 808 -287 1257 -330 175 -17 456 -25 463 -14 4 7 -22 13 -71 17 -224
20 -580 96 -825 177 -279 92 -595 241 -794 372 -195 128 -366 326 -628 727
-345 526 -405 615 -498 740 -178 240 -400 484 -566 623 -25 20 -40 37 -35 37
16 0 300 -167 439 -257 152 -100 282 -194 645 -467 390 -294 618 -439 815
-516 142 -56 421 -113 695 -141 152 -16 573 -16 730 0 126 13 431 59 439 67
11 11 -12 11 -114 2 -140 -13 -554 -3 -710 16 -293 36 -492 79 -750 163 -241
78 -401 173 -643 380 -100 85 -662 619 -662 629 0 7 211 -93 530 -254 574
-288 738 -362 965 -435 159 -51 257 -67 465 -77 503 -23 1102 71 1535 240 39
15 79 30 89 34 10 3 17 9 14 11 -3 3 -70 -10 -149 -29 -157 -38 -332 -68 -504
-88 -148 -17 -706 -17 -845 0 -497 62 -683 143 -1360 592 -766 509 -1115 693
-1586 835 l-119 36 120 -6 c367 -18 671 -81 1489 -306 786 -217 994 -238 1456
-148 392 75 804 228 1132 417 104 60 170 106 143 99 -11 -3 -69 -28 -130 -55
-389 -175 -830 -281 -1312 -313 -265 -18 -430 2 -693 81 -174 52 -667 236
-658 246 2 1 118 -13 258 -32 451 -60 628 -76 865 -77 248 -1 327 9 529 69
378 111 706 265 1029 483 163 110 387 289 387 310 0 5 -56 -29 -125 -74 -359
-236 -814 -424 -1255 -519 -450 -97 -636 -80 -1550 140 -604 146 -876 199
-1220 235 -129 14 -568 17 -645 5 -74 -12 -53 -2 78 38 399 121 755 169 1592
216 762 43 974 80 1256 221 441 220 825 532 1109 903 33 43 60 83 60 89 0 6
-55 -44 -122 -109 -306 -299 -683 -541 -1103 -707 -277 -110 -401 -130 -785
-131 -249 -1 -775 19 -830 31 -16 3 46 22 185 54 979 227 1189 299 1440 491
384 295 696 669 898 1076 44 89 78 164 75 167 -2 3 -41 -50 -86 -118 -260
-392 -613 -726 -1034 -978 -295 -178 -534 -235 -1408 -334 -807 -92 -1252
-190 -1672 -369 -21 -9 -38 -15 -38 -12 0 9 217 172 320 238 287 187 503 294
1295 641 371 162 651 326 788 459 272 267 540 739 647 1140 39 148 60 258 49
258 -5 0 -12 -12 -15 -27 -15 -59 -117 -303 -166 -393 -161 -299 -374 -575
-609 -788 -150 -136 -294 -221 -546 -321 -129 -51 -675 -229 -662 -216 3 2 96
63 208 135 648 416 822 591 1010 1016 101 230 178 491 216 734 18 117 31 488
16 455 -5 -11 -10 -32 -10 -47 -2 -51 -51 -276 -86 -394 -102 -334 -253 -633
-461 -910 -197 -263 -356 -370 -1104 -740 -471 -233 -644 -324 -815 -427 -200
-120 -417 -273 -513 -361 -23 -21 -45 -37 -47 -34 -7 7 109 190 189 298 154
207 287 352 701 765 495 494 608 625 701 815 55 111 105 292 141 505 22 137
26 579 5 715 -15 97 -48 257 -64 313 -16 55 -26 45 -16 -15 6 -29 10 -152 10
-273 1 -177 -3 -247 -21 -360 -36 -240 -105 -475 -198 -680 -124 -275 -281
-433 -883 -890 -129 -98 -264 -201 -299 -229 l-65 -51 36 55 c19 30 127 195
240 365 454 684 509 831 495 1310 -11 355 -84 683 -223 1003 -52 119 -103 216
-110 210 -2 -2 10 -42 26 -88 147 -428 177 -953 81 -1395 -27 -121 -51 -187
-107 -297 -89 -170 -220 -340 -590 -763 -249 -283 -371 -431 -489 -590 -98
-131 -218 -311 -252 -378 -13 -27 -26 -47 -28 -45 -9 9 28 222 66 377 49 201
116 404 249 756 208 551 270 774 270 979 0 74 -30 250 -66 385 -79 297 -248
641 -440 897 -79 105 -155 196 -160 191 -2 -2 26 -53 62 -113 219 -361 346
-760 373 -1175 21 -325 -43 -512 -393 -1147 -58 -106 -122 -224 -142 -263 -19
-39 -37 -69 -39 -68 -1 2 23 158 55 346 71 418 90 578 90 760 0 164 -16 265
-66 401 -141 389 -404 787 -730 1102 -119 115 -204 188 -204 175z"/>
</g>
</svg>
